<svg xmlns="http://www.w3.org/2000/svg" viewBox="0 0 512 512" style="enable-background:new 0 0 512 512" xml:space="preserve">
  <circle style="fill:#f1333f" cx="256" cy="256" r="256"/>
  <path style="fill:#ae283f" d="M512 256a258.15 258.15 0 0 0-2.564-36.231L420.667 131 91.333 381l128.436 128.436A258.15 258.15 0 0 0 256 512c141.385 0 256-114.615 256-256z"/>
  <path style="fill:#fff" d="M91.33 131h329.33v250H91.33z"/>
  <path style="fill:#e0e0e0" d="M256 131h164.67v250H256z"/>
  <path style="fill:#e0e0e0" d="M91.33 131h329.33v32.17H91.33z"/>
  <path style="fill:silver" d="M256 131h164.67v32.17H256z"/>
  <circle style="fill:#ff6838" cx="111.17" cy="147.08" r="8.917"/>
  <circle style="fill:#ff6838" cx="137.92" cy="147.08" r="8.917"/>
  <circle style="fill:#ff6838" cx="164.67" cy="147.08" r="8.917"/>
  <path style="fill:#005c83" d="m398.935 288.631 12.22-12.22a104.153 104.153 0 0 0-25.685-25.685l-12.22 12.22a86.13 86.13 0 0 0-28.888-11.972v-17.289a104.216 104.216 0 0 0-18.162-1.589c-6.196 0-12.265.546-18.162 1.589v17.289a86.137 86.137 0 0 0-28.888 11.971l-12.22-12.22a104.153 104.153 0 0 0-25.685 25.685l12.22 12.22a86.13 86.13 0 0 0-11.972 28.888h-17.289a104.216 104.216 0 0 0-1.589 18.162c0 6.196.546 12.265 1.589 18.162h17.289a86.118 86.118 0 0 0 11.972 28.888l-12.22 12.22a104.153 104.153 0 0 0 25.685 25.685l12.22-12.22a86.13 86.13 0 0 0 28.888 11.972v17.289a104.216 104.216 0 0 0 18.162 1.589c6.196 0 12.265-.546 18.162-1.589v-17.289a86.118 86.118 0 0 0 28.888-11.972l12.22 12.22a104.153 104.153 0 0 0 25.685-25.685l-12.22-12.22a86.139 86.139 0 0 0 11.972-28.888h17.289a104.216 104.216 0 0 0 1.589-18.162c0-6.196-.546-12.265-1.589-18.162h-17.289a86.142 86.142 0 0 0-11.972-28.887zM326.2 373.937c-21.128 0-38.256-17.128-38.256-38.256s17.128-38.256 38.256-38.256 38.256 17.128 38.256 38.256-17.129 38.256-38.256 38.256z"/>
  <path style="fill:#00263f" d="M428.195 353.844a104.218 104.218 0 0 0 1.589-18.163c0-6.196-.546-12.265-1.589-18.162h-17.289a86.128 86.128 0 0 0-11.971-28.888l12.22-12.22a104.153 104.153 0 0 0-25.685-25.685l-12.22 12.22a86.11 86.11 0 0 0-28.888-11.972v-17.289a104.216 104.216 0 0 0-18.162-1.589c-.402 0-.799.022-1.199.026v65.333c.399-.012.797-.03 1.199-.03 21.128 0 38.256 17.127 38.256 38.255s-17.127 38.256-38.256 38.256c-.402 0-.8-.018-1.199-.03v65.333c.401.004.798.026 1.199.026 6.197 0 12.265-.546 18.162-1.589v-17.289a86.118 86.118 0 0 0 28.888-11.972l12.22 12.22a104.14 104.14 0 0 0 25.685-25.686l-12.22-12.22a86.116 86.116 0 0 0 11.971-28.888h17.289v.003z"/>
  <path style="fill:#005c83" d="m104.153 246.216 24.743-64.349h12.054l24.652 64.349h-15.771l-4.984-14.411h-20.03l-4.894 14.411h-15.77zm30.725-48.579-7.704 23.927h15.136l-7.432-23.927zM171.492 246.216v-64.349h27.462c3.081 0 5.905.634 8.474 1.903 2.567 1.269 4.772 2.931 6.616 4.985a23.826 23.826 0 0 1 4.351 6.979c1.057 2.599 1.586 5.227 1.586 7.885 0 2.841-.499 5.56-1.495 8.157a23.286 23.286 0 0 1-4.17 6.979c-1.782 2.055-3.942 3.686-6.479 4.894-2.538 1.209-5.348 1.813-8.429 1.813h-13.052v20.755h-14.864v-.001zm14.863-33.716h12.146c1.751 0 3.263-.755 4.531-2.266 1.269-1.51 1.903-3.716 1.903-6.616 0-1.51-.197-2.81-.589-3.897-.395-1.088-.922-1.994-1.587-2.719s-1.42-1.253-2.266-1.586a6.907 6.907 0 0 0-2.537-.499h-11.602V212.5h.001zM227.685 246.216v-64.349h14.863v64.349h-14.863z"/>
</svg>
