<svg xmlns="http://www.w3.org/2000/svg" viewBox="0 0 512 512" style="enable-background:new 0 0 512 512" xml:space="preserve">
  <path style="fill:#f2f2f2" d="M512 256c0 77.939-34.826 147.738-89.778 194.696a224.433 224.433 0 0 1-5.162 4.284C373.07 490.642 317.032 512 256 512c-25.569 0-50.249-3.751-73.54-10.721a221.864 221.864 0 0 1-3.741-1.149C75.107 467.362 0 370.448 0 256 0 114.615 114.615 0 256 0s256 114.615 256 256z"/>
  <path style="fill:#5c5560" d="M430.111 267.452c-.084-.345-.178-.7-.272-1.045-.23-.836-.449-1.672-.69-2.508a372.863 372.863 0 0 0-5.12-17.063 149.24 149.24 0 0 0-1.097-3.291c-17.23-51.315-41.984-88.304-64.178-114.887-.742-.878-1.473-1.745-2.194-2.602-5.59-6.572-10.992-12.487-16.039-17.805-5.12-5.392-9.885-10.167-14.106-14.388l-.752-.752A124.016 124.016 0 0 0 314.2 82.955a83.484 83.484 0 0 0-2.529-1.912c-35.809-26.384-79.569-26.384-120.132.93l-2.936 1.766c-44.931 26.948-74.804 44.847-88.21 87.782-.324 1.034-.637 2.09-.94 3.156-2.006 7.001-3.594 14.66-4.754 23.103 0 .031-.01.073-.01.104-.993 7.22-1.034 14.545-.303 21.901.575 5.851 1.63 11.734 3.082 17.607.261 1.055.533 2.111.815 3.166 8.171 30.218 26.279 60.165 41.806 85.859 10.721 17.732 20.846 34.471 25.694 47.971 6.322 17.617 6.196 37.951 6.071 59.476-.125 22.288-.261 45.14 6.865 66.267 1.243.397 2.487.773 3.741 1.149-7.732-21.264-7.596-44.628-7.471-67.396.125-21.817.251-42.423-6.259-60.552-4.953-13.803-15.151-30.668-25.955-48.536-22.643-37.46-50.834-84.083-44.972-126.589 8.485-61.45 40.072-80.394 92.411-111.783l2.967-1.776.073-.052C213.149 71.2 233.368 64.44 253.513 64.44c3.699 0 7.408.23 11.107.69 21.368 2.644 41.712 13.093 58.817 30.208 27.345 27.335 78.242 78.242 103.372 171.886 17.492 65.191 12.831 135.91-9.749 187.758 1.745-1.4 3.459-2.832 5.162-4.284 20.721-51.662 24.618-119.988 7.889-183.246z"/>
  <path style="fill:#5c5560" d="m358.181 129.699-2.726-1.548c.196-.345 19.406-34.654 5.674-48.386-5.034-5.034-12.407-8.222-19.721-8.526-9.741-.401-19.603 4.089-28.51 12.995l-2.216-2.216c9.543-9.544 20.205-14.362 30.857-13.911 11.645.485 19.13 6.765 21.807 9.442 15.412 15.413-4.318 50.658-5.165 52.15zM99.444 240.566c-28.336 0-38.62-18.926-38.62-31.647 0-13.97 5.293-37.406 40.746-37.406v3.135c-14.047 0-37.611 4.452-37.611 34.272 0 11.461 9.45 28.512 35.486 28.512-.001-.001-.001 3.134-.001 3.134zM263.931 73.968c-24.273 0-44.022 19.738-44.022 44.011s19.749 44.022 44.022 44.022c24.263 0 44.011-19.749 44.011-44.022s-19.749-44.011-44.011-44.011zm0 84.898c-22.549 0-40.887-18.338-40.887-40.887 0-22.538 18.338-40.876 40.887-40.876 16.217 0 30.26 9.488 36.864 23.218a41.023 41.023 0 0 1 3.542 11.431v.01c.313 2.027.47 4.106.47 6.217 0 22.549-18.338 40.887-40.876 40.887zM161.52 124.97c-24.273 0-44.011 19.738-44.011 44.011s19.738 44.022 44.011 44.022 44.022-19.749 44.022-44.022-19.749-44.011-44.022-44.011zm0 84.898c-22.538 0-40.876-18.338-40.876-40.887 0-22.538 18.338-40.876 40.876-40.876 14.817 0 27.815 7.92 34.983 19.738a40.776 40.776 0 0 1 4.712 11.306 41.277 41.277 0 0 1 1.191 9.833c.001 22.548-18.337 40.886-40.886 40.886z"/>
  <circle style="fill:#5c5560" cx="187.737" cy="158.124" r="13.518"/>
  <circle style="fill:#5c5560" cx="290.994" cy="109.62" r="13.518"/>
  <path style="fill:#f9f9f9" d="M296.699 109.714c-.418 0-.815-.167-1.108-.46a1.566 1.566 0 0 1 0-2.216c.575-.575 1.63-.585 2.215 0a1.566 1.566 0 0 1 0 2.216c-.293.293-.7.46-1.107.46zM193.473 158.051c-.418 0-.815-.167-1.108-.46-.073-.073-.146-.146-.199-.24-.052-.084-.104-.167-.146-.261a1.632 1.632 0 0 1-.084-.303 1.415 1.415 0 0 1-.031-.303c0-.408.167-.815.46-1.108.575-.585 1.63-.585 2.215 0 .073.073.136.157.188.24a.97.97 0 0 1 .146.272 1.491 1.491 0 0 1 .094.899 1.676 1.676 0 0 1-.094.303.925.925 0 0 1-.146.261 1.056 1.056 0 0 1-.188.24c-.073.073-.157.136-.24.199a2.205 2.205 0 0 1-.272.146c-.094.031-.188.063-.293.084a1.46 1.46 0 0 1-.302.031z"/>
  <ellipse transform="rotate(-124.604 229.206 180.788)" style="fill:#5c5560" cx="229.206" cy="180.788" rx="11.06" ry="17.614"/>
  <path style="fill:#5c5560" d="M213.028 223.024a8.097 8.097 0 0 1-2.115-.266c-1.647-.447-3.851-1.703-5.001-5.151-5.348-16.041 8.267-28.301 18.106-32.261l1.17 2.908c-8.78 3.534-20.97 14.36-16.303 28.363.578 1.735 1.51 2.754 2.848 3.117 4.082 1.111 12.158-3.276 22.158-12.028 3.39-2.966 7.772-4.728 12.337-4.958 8.053-.406 26.782-2.456 26.782-12.67 0-7.191-5.739-11.121-9.159-12.823-8.387-4.175-19.198-3.638-25.703 1.277l-1.89-2.501c7.404-5.593 19.595-6.258 28.991-1.583 6.925 3.447 10.896 9.144 10.896 15.63 0 12.442-18.644 15.24-29.758 15.802-3.865.195-7.569 1.681-10.43 4.187-6.978 6.103-16.29 12.956-22.929 12.957z"/>
  <path style="fill:#5c5560" d="M242.044 242.759c-1.523 0-2.989-.399-4.384-1.197-6.786-3.883-10.19-16.483-11.851-26.37l3.092-.519c2.158 12.843 5.918 21.651 10.316 24.169 1.631.933 3.369 1.026 5.308.285 4.641-1.767 7.367-4.127 8.101-7.016 1.006-4.012-2.046-8.382-4.009-10.332-1.95-1.95-4.591-7.422-7.854-16.266l2.94-1.085c2.974 8.06 5.571 13.575 7.126 15.13 3.018 2.996 6.099 8.286 4.836 13.319-1.002 3.94-4.374 7.027-10.024 9.178-1.229.47-2.43.704-3.597.704z"/>
  <path style="fill:#5c5560" d="M262.863 235.856c-2.65 0-5.753-.631-9.247-1.884l1.058-2.951c3.557 1.276 6.716 1.854 9.128 1.666 2.959-.228 4.838-1.567 5.744-4.094 1.81-5.069-1.975-14.019-10.658-25.201l2.475-1.923c6.624 8.529 13.933 20.343 11.134 28.179-1.329 3.71-4.253 5.841-8.455 6.164-.382.03-.776.044-1.179.044zM445.238 271.83c-2.542 0-5.577-1.087-9.05-2.329-2.555-.914-5.45-1.951-8.708-2.799l.79-3.033c3.394.884 6.359 1.946 8.976 2.882 5.421 1.939 8.566 2.96 10.183 1.344 4.501-4.514 8.48-13.88 2.72-19.641-3.096-3.096-7.377-2.598-13.299-1.907-4.496.523-9.595 1.119-15.326.165l.514-3.092c5.293.88 10.157.313 14.449-.187 6.283-.734 11.709-1.366 15.878 2.805 5.239 5.239 5.655 15.675-2.719 24.072-1.24 1.237-2.714 1.72-4.408 1.72z"/>
  <path style="fill:#5c5560" d="M452.221 265.582a1.566 1.566 0 0 1-1.259-2.499c.488-.66.638-1.289.473-1.981-.563-2.358-4.468-4.787-5.792-5.45a1.566 1.566 0 0 1 1.403-2.803c.655.327 6.428 3.318 7.437 7.52.382 1.592.037 3.175-1.001 4.578-.307.415-.78.635-1.261.635zM360.647 304.191c-10.156-10.93-35.224-7.941-36.289-7.805l-1.902.23.606 1.818c.042.125 4.044 12.518-3.469 23.092l-.021.031c-2.696 3.793-6.583 6.949-11.557 9.383a1.577 1.577 0 0 0-.721 2.1c.272.554.836.878 1.411.878.23 0 .47-.052.69-.167 5.172-2.529 9.3-5.81 12.278-9.759 9.08-.355 16.551 2.602 22.58 4.984 5.841 2.299 10.459 4.117 14.232 2.058.46-.251.888-.543 1.285-.909.073-.052.146-.105.209-.178 1.975-1.849 3.375-5.036 4.336-9.843 1.305-6.53.072-11.89-3.668-15.913zm.595 15.297c-.167.857-.355 1.64-.554 2.372-.826 3.082-1.881 5.099-3.208 6.092-.157.125-.324.23-.491.324-2.497 1.358-6.51-.219-11.588-2.215-5.831-2.309-12.946-5.11-21.671-5.225 4.869-8.694 3.668-17.69 2.811-21.514 5.81-.46 24.179-1.212 31.807 7.001 3.061 3.291 4.012 7.596 2.894 13.165z"/>
  <path style="fill:#5c5560" d="M358.865 330.417a1.57 1.57 0 0 1-1.501-2.019c2.752-9.172-5.833-13.574-6.199-13.757a1.568 1.568 0 0 1 1.387-2.812c3.936 1.935 10.634 8.076 7.815 17.47a1.572 1.572 0 0 1-1.502 1.118zM326.206 95.879a12.257 12.257 0 0 1 12.272-12.027c6.784 0 12.289 5.489 12.289 12.289 0 6.783-5.506 12.289-12.289 12.289h-.049l-12.223-12.551zM96.373 197.204c-4.981 1.573-8.586 6.227-8.586 11.715 0 5.358 3.441 9.913 8.225 11.584l.361-23.299z"/>
</svg>
