<svg viewBox="0 0 64 64" xmlns="http://www.w3.org/2000/svg">
  <path d="M53 19H11a5 5 0 0 0-5 5v31h52V24a5 5 0 0 0-5-5z" fill="#e9f1f2"/>
  <path d="M12 48a3 3 0 0 1-3-3V19.422A4.998 4.998 0 0 0 6 24v31h52v-7z" fill="#d0d8da"/>
  <path d="M37 53v2H27v-2H3v3a5 5 0 0 0 5 5h48a5 5 0 0 0 5-5v-3z" fill="#e9f1f2"/>
  <path d="M59 57H11a5 5 0 0 1-4.899-4H3v3a5 5 0 0 0 5 5h48c2.553 0 4.635-1.92 4.939-4.391A4.988 4.988 0 0 1 59 57z" fill="#d0d8da"/>
  <g>
    <path d="M46 11h6V6a3 3 0 0 0-3-3h-3z" fill="#00b4d8"/>
    <path d="M15 3a3 3 0 0 0-3 3v39h34V6a3 3 0 0 1 3-3z" fill="#ade8f4"/>
    <path d="M37.463 21.342c-8.284 0-15-6.716-15-15V3H15a3 3 0 0 0-3 3v39h34V21.342z" fill="#48cae4"/>
    <path d="M17 8h17v4H17z" fill="#f9dbaf"/>
    <circle cx="18" cy="39" fill="#edb88e" r="2"/>
    <circle cx="22" cy="29" fill="#edb88e" r="2"/>
    <circle cx="40" cy="11" fill="#f9dbaf" r="2"/>
    <path d="M22.559 8H17v4h6.575a14.888 14.888 0 0 1-1.016-4z" fill="#edb88e"/>
    <circle cx="40" cy="11" fill="#edb88e" r="1"/>
    <g fill="#da9367">
      <circle cx="22" cy="29" r="1"/>
      <circle cx="18" cy="39" r="1"/>
    </g>
  </g>
  <g>
    <circle cx="46" cy="38" fill="#fcf2ad" r="15"/>
    <path d="M55.5 44.5c-8.284 0-15-6.716-15-15 0-2.081.425-4.063 1.191-5.865C35.508 25.487 31 31.214 31 38c0 8.284 6.716 15 15 15 6.203 0 11.525-3.766 13.809-9.135a14.99 14.99 0 0 1-4.309.635z" fill="#f9dbaf"/>
    <circle cx="46" cy="38" fill="#edb88e" r="11"/>
    <path d="M35 38c0 6.075 4.925 11 11 11 3.654 0 6.883-1.789 8.883-4.531C46.887 44.143 40.5 37.576 40.5 29.5c0-.354.029-.701.053-1.049C37.239 30.346 35 33.909 35 38z" fill="#da9367"/>
    <path d="m46 31 5 7-5 7-5-7z" fill="#f9dbaf"/>
    <path d="m46 39 5-1-5-7-5 7z" fill="#fcf2ad"/>
    <path d="M47.864 42.39a15.04 15.04 0 0 1-5.696-6.026L41 38l5 7z" fill="#edb88e"/>
    <path d="M43.527 38.505a14.874 14.874 0 0 1-1.358-2.142L41 38z" fill="#f9dbaf"/>
  </g>
  <g>
    <g fill="#323232">
      <path d="M61 52h-2v-4.69a16.208 16.208 0 0 0 1.9-3.512 1 1 0 1 0-1.863-.725C56.925 48.496 51.808 52 46 52c-7.72 0-14-6.28-14-14s6.28-14 14-14 14 6.28 14 14c0 .481-.025.968-.075 1.447a1.001 1.001 0 0 0 1.991.206A15.897 15.897 0 0 0 59 28.708V24c0-3.309-2.691-6-6-6h-6v-6h5a1 1 0 0 0 1-1V6c0-2.206-1.794-4-4-4H15c-2.206 0-4 1.794-4 4v12c-3.309 0-6 2.691-6 6v11a1 1 0 1 0 2 0V24c0-2.206 1.794-4 4-4v25a1 1 0 0 0 1 1h16.738a1 1 0 1 0 0-2H13V6c0-1.103.897-2 2-2h30.537A3.97 3.97 0 0 0 45 6v16.051a15.908 15.908 0 0 0-4.089.793v-8.939a2.996 2.996 0 0 0 2-2.816c0-1.654-1.346-3-3-3s-3 1.346-3 3c0 1.302.839 2.402 2 2.816v9.773a16.094 16.094 0 0 0-7.012 6.774l-2.198-2.164A.993.993 0 0 0 29 28h-4.184A2.996 2.996 0 0 0 22 26c-1.654 0-3 1.346-3 3s1.346 3 3 3a2.996 2.996 0 0 0 2.816-2h3.775l2.44 2.402A15.886 15.886 0 0 0 30 38h-9.184A2.996 2.996 0 0 0 18 36c-1.654 0-3 1.346-3 3s1.346 3 3 3a2.996 2.996 0 0 0 2.816-2h9.323c.649 5.168 3.762 9.577 8.132 12H37a1 1 0 0 0-1 1v1h-8v-1a1 1 0 0 0-1-1H7V39a1 1 0 1 0-2 0v13H3a1 1 0 0 0-1 1v3c0 3.309 2.691 6 6 6h11a1 1 0 1 0 0-2H8c-2.206 0-4-1.794-4-4v-2h22v1a1 1 0 0 0 1 1h10a1 1 0 0 0 1-1v-1h22v2c0 2.206-1.794 4-4 4H23a1 1 0 1 0 0 2h33c3.309 0 6-2.691 6-6v-3a1 1 0 0 0-1-1zM39.911 10.089a1.001 1.001 0 1 1-1 1c0-.551.448-1 1-1zM53 20c2.206 0 4 1.794 4 4v2.411a15.928 15.928 0 0 0-10-4.361V20zM49 4c1.103 0 2 .897 2 2v4h-4V6c0-1.103.897-2 2-2zM22 30a1.001 1.001 0 0 1 0-2 1.001 1.001 0 0 1 0 2zm-4 10a1.001 1.001 0 0 1 0-2 1.001 1.001 0 0 1 0 2zm39 9.625V52h-3.24A15.8 15.8 0 0 0 57 49.625z"/>
      <circle cx="8" cy="57" r="1"/>
      <circle cx="12" cy="57" r="1"/>
      <circle cx="52" cy="57" r="1"/>
      <circle cx="56" cy="57" r="1"/>
      <path d="M37.507 30.944a1.003 1.003 0 0 0-1.391.256A11.934 11.934 0 0 0 34 38c0 6.617 5.383 12 12 12s12-5.383 12-12-5.383-12-12-12c-2.438 0-4.79.732-6.799 2.116a1 1 0 0 0 1.135 1.647A9.935 9.935 0 0 1 46 28c5.514 0 10 4.486 10 10s-4.486 10-10 10-10-4.486-10-10a9.94 9.94 0 0 1 1.763-5.665 1 1 0 0 0-.256-1.391z"/>
      <path d="M46 46a.997.997 0 0 0 .813-.419l5-7a.997.997 0 0 0 0-1.162l-5-7c-.375-.526-1.252-.526-1.627 0l-5 7a.997.997 0 0 0 0 1.162l5 7A1 1 0 0 0 46 46zm0-2.721-2.717-3.803 2.521.504a.925.925 0 0 0 .392 0l2.521-.504zm0-10.558 3.288 4.602L46 37.98l-3.288-.657zM35 8a1 1 0 0 0-1-1H17a1 1 0 0 0-1 1v4a1 1 0 0 0 1 1h17a1 1 0 0 0 1-1zm-2 3H18V9h15zM34 15H23a1 1 0 1 0 0 2h11a1 1 0 1 0 0-2zM17 21h17a1 1 0 1 0 0-2H17a1 1 0 1 0 0 2zM27 23a1 1 0 1 0 0 2h6a1 1 0 1 0 0-2z"/>
    </g>
  </g>
</svg>
